<svg xmlns="http://www.w3.org/2000/svg" viewBox="0 0 96 96">
  <defs>
    <linearGradient id="g" x1="18" x2="78" y1="12" y2="84" gradientUnits="userSpaceOnUse">
      <stop stop-color="#2da44e"/>
      <stop offset="1" stop-color="#0969da"/>
    </linearGradient>
  </defs>
  <circle cx="48" cy="48" r="44" fill="url(#g)"/>
  <path fill="#fff" d="M33 22h23.5L70 35.5V70a4 4 0 0 1-4 4H33a4 4 0 0 1-4-4V26a4 4 0 0 1 4-4Zm22 5.5V37h9.5L55 27.5ZM38 48a3 3 0 1 0 0 6h22a3 3 0 1 0 0-6H38Zm0 12a3 3 0 1 0 0 6h15a3 3 0 1 0 0-6H38Z"/>
</svg>
